<svg xmlns="http://www.w3.org/2000/svg" width="960" height="420" viewBox="0 0 960 420" role="img" aria-labelledby="title desc">
  <title id="title">searchEngineJump preview</title>
  <desc id="desc">A preview of the searchEngineJump toolbar on a search results page.</desc>
  <defs>
    <linearGradient id="bg" x1="0" y1="0" x2="1" y2="1">
      <stop offset="0" stop-color="#f6f8fb"/>
      <stop offset="0.52" stop-color="#eef7f2"/>
      <stop offset="1" stop-color="#fff7ed"/>
    </linearGradient>
    <filter id="shadow" x="-20%" y="-20%" width="140%" height="140%">
      <feDropShadow dx="0" dy="16" stdDeviation="18" flood-color="#23324d" flood-opacity="0.16"/>
    </filter>
  </defs>
  <rect width="960" height="420" rx="0" fill="url(#bg)"/>
  <rect x="86" y="58" width="788" height="300" rx="8" fill="#ffffff" filter="url(#shadow)"/>
  <rect x="86" y="58" width="788" height="46" rx="8" fill="#eef2f7"/>
  <circle cx="113" cy="81" r="6" fill="#f26d5b"/>
  <circle cx="134" cy="81" r="6" fill="#f7c948"/>
  <circle cx="155" cy="81" r="6" fill="#34c759"/>
  <rect x="193" y="71" width="488" height="20" rx="10" fill="#ffffff"/>
  <rect x="704" y="71" width="98" height="20" rx="10" fill="#d7e3f4"/>

  <text x="132" y="148" fill="#1d2433" font-family="Arial, Helvetica, sans-serif" font-size="28" font-weight="700">searchEngineJump</text>
  <text x="132" y="178" fill="#5c687c" font-family="Arial, Helvetica, sans-serif" font-size="15">Search once, jump across engines without losing your query.</text>

  <g transform="translate(132 212)">
    <rect width="638" height="56" rx="8" fill="#172033"/>
    <g font-family="Arial, Helvetica, sans-serif" font-size="15" font-weight="700">
      <rect x="18" y="14" width="82" height="28" rx="5" fill="#ffffff"/>
      <text x="37" y="34" fill="#4285f4">Google</text>
      <rect x="112" y="14" width="72" height="28" rx="5" fill="#e9f4ff"/>
      <text x="133" y="34" fill="#0066d9">Baidu</text>
      <rect x="196" y="14" width="64" height="28" rx="5" fill="#eef9f1"/>
      <text x="216" y="34" fill="#16833a">Bing</text>
      <rect x="272" y="14" width="78" height="28" rx="5" fill="#fff6df"/>
      <text x="291" y="34" fill="#976800">Zhihu</text>
      <rect x="362" y="14" width="84" height="28" rx="5" fill="#f4f1ff"/>
      <text x="379" y="34" fill="#5a42c5">GitHub</text>
    </g>
    <g transform="translate(560 13)">
      <rect width="34" height="30" rx="6" fill="#ec6d51"/>
      <circle cx="17" cy="15" r="7" fill="none" stroke="#ffffff" stroke-width="2"/>
      <path d="M17 5v4M17 21v4M7 15h4M23 15h4M10 8l3 3M24 22l-3-3M24 8l-3 3M10 22l3-3" stroke="#ffffff" stroke-width="2" stroke-linecap="round"/>
    </g>
  </g>

  <g transform="translate(132 290)">
    <rect width="290" height="10" rx="5" fill="#d8dee9"/>
    <rect y="26" width="238" height="10" rx="5" fill="#e6ebf2"/>
    <rect y="52" width="332" height="10" rx="5" fill="#e6ebf2"/>
  </g>
  <g transform="translate(516 292)">
    <rect width="214" height="44" rx="8" fill="#fff7ed" stroke="#ec6d51"/>
    <text x="22" y="28" fill="#a44931" font-family="Arial, Helvetica, sans-serif" font-size="15" font-weight="700">Hidden button hover target</text>
  </g>
</svg>
